# xmcd
#
# Track frame offsets:
# 150
# 21417
# 46590
# 67477
# 91157
# 107212
# 122680
# 146749
# 163662
# 183187
# 201285
# 216788
# 234010
# 257319
# 282859
# 305555
# 324204
#
# Disc length: 4564 seconds
#
# Revision: 0
# Processed by: cddbd v1.5.2PL0 Copyright (c) Steve Scherf et al.
# Submitted via: Audion 3.0.2 (http://www.panic.com/audion/)
#
DISCID=ec11d211
DTITLE=Red Hot Chili Peppers - Stadium Arcadium: Jupiter [CD1]
DYEAR=1900
DGENRE=
TTITLE0=Dani California
TTITLE1=Snow (Hey Oh)
TTITLE2=Charlie 
TTITLE3=Stadium Arcadium
TTITLE4=Hump De Bump
TTITLE5=She's Only 18
TTITLE6=Slow Cheetah
TTITLE7=Torture Me
TTITLE8=Strip My Mind
TTITLE9=Especially In Michigan
TTITLE10=Warlocks
TTITLE11=C'mon Girl
TTITLE12=Wet Sand
TTITLE13=Hey
TTITLE14=Desecration Smile
TTITLE15=Tell Me Baby
TTITLE16=Hard To Concentrate
EXTD=
EXTT0=
EXTT1=
EXTT2=
EXTT3=
EXTT4=
EXTT5=
EXTT6=
EXTT7=
EXTT8=
EXTT9=
EXTT10=
EXTT11=
EXTT12=
EXTT13=
EXTT14=
EXTT15=
EXTT16=
PLAYORDER=
